<?xml version="1.0" encoding="utf-8"?>
<!-- Generator: Adobe Illustrator 18.0.0, SVG Export Plug-In . SVG Version: 6.00 Build 0)  -->
<!DOCTYPE svg PUBLIC "-//W3C//DTD SVG 1.1//EN" "http://www.w3.org/Graphics/SVG/1.1/DTD/svg11.dtd" [
	<!ENTITY ns_flows "http://ns.adobe.com/Flows/1.0/">
	<!ENTITY ns_extend "http://ns.adobe.com/Extensibility/1.0/">
	<!ENTITY ns_ai "http://ns.adobe.com/AdobeIllustrator/10.0/">
	<!ENTITY ns_graphs "http://ns.adobe.com/Graphs/1.0/">
]>
<svg version="1.1" id="Layer_1" xmlns:x="&ns_extend;" xmlns:i="&ns_ai;" xmlns:graph="&ns_graphs;"
	 xmlns="http://www.w3.org/2000/svg" xmlns:xlink="http://www.w3.org/1999/xlink" xmlns:a="http://ns.adobe.com/AdobeSVGViewerExtensions/3.0/"
	 x="0px" y="0px" viewBox="0 0 1400 980" enable-background="new 0 0 1400 980" xml:space="preserve">
<g>
	<rect fill="#9DDCF9" width="1400" height="980"/>
	<g>
		<g>
			<g>
				<path fill="#52BA66" d="M1246.1,624.9h-131c0.3,0,0.7,0,1,0c-17.4-0.6-31.4-15.7-31.4-34.2v0c0-18.5,14-33.6,31.4-34.2
					c-0.3,0-0.7,0-1,0h39.1c21.8,0,39.5-18.7,39.5-41.7v0c0-23-17.7-41.7-39.5-41.7h-125.3c-4.5-1.8-7.7-6.5-7.7-11.9
					c0-7,5.4-12.7,12-12.7h-2.9c20.9,0,37.8-17.9,37.8-39.9v0c0-19.7-13.6-36.1-31.4-39.3L880.4,369c-23.4,0-42.4-17.7-42.4-39.5v0
					c0-21.8,19-39.5,42.4-39.5h2.5c20.8,0,37.7-13.1,37.7-29.3v0c0-16.2-16.9-29.3-37.7-29.3H412.8c-20.8,0-37.7,13.1-37.7,29.3v0
					c0,16.2,16.9,29.3,37.7,29.3H382H294c-28.2,0-51.1,17.7-51.1,39.6c0,18.7,16.7,34.3,39.1,38.5c3.2,0.7,6.5,1,9.9,1.1h92.3
					c23.5,0,42.5,17.7,42.5,39.6v0c0,21.9-19,39.6-42.5,39.6h-10.8h-36.9h-10.2h-90.2c-28.2,0-51.1,24.2-51.1,54
					c0,25.5,16.7,46.8,39.2,52.5c3.3,1,6.8,1.5,10.5,1.5h55.7c12.4,0,22.5,10.6,22.5,23.7c0,13.1-10.1,23.7-22.5,23.7v0.3H176.7
					c-31.2,0-56.5,26.7-56.5,59.7c0,33,25.3,59.7,56.5,59.7l58.1,0.2c-2.2,4.8-3.5,10.2-3.5,15.8v0c0,21,17,38.1,38.1,38.1h815.9
					c21,0,38.1-17,38.1-38.1v0c0-5.7-1.3-11.1-3.5-16h126.4c25.8,0,46.7-22.1,46.7-49.4S1272,624.9,1246.1,624.9z"/>
				<path fill="#2A914A" d="M779.4,384.8L779.4,384.8l-1.2,0h-14.5h-69.6c0.1,0,0.3,0,0.4,0c-7.4-0.2-13.3-5.2-13.3-11.4
					c0-6.2,5.9-11.3,13.3-11.4c-0.1,0-0.3,0-0.4,0h34.1c11,0,19.9-7.4,19.9-16.5s-8.9-16.5-19.9-16.5H614.7H470
					c-11,0-19.9,7.4-19.9,16.5s8.9,16.5,19.9,16.5h34.1c-0.1,0-0.3,0-0.4,0c7.4,0.2,13.3,5.2,13.3,11.4c0,6.2-5.9,11.3-13.3,11.4
					c0.1,0,0.3,0,0.4,0h3.8v0c-8.7,0.5-15.6,6.5-15.6,13.9v0c0,7.4,6.9,13.4,15.6,13.9v0h1.2h14.5h71.1h183.5h1.2v0
					c8.7-0.5,15.6-6.5,15.6-13.9v0C795,391.3,788.1,385.3,779.4,384.8z"/>
				<path fill="#38AE5A" d="M962.3,516.7H466.6c-17.4,0-31.6,11.8-31.6,26.2v0c0,14.5,14.1,26.2,31.6,26.2h72.8
					c17.4,0,31.6,11.8,31.6,26.2v0c0,13-11.3,23.7-26.2,25.8H352.4c-17.4,0-31.6,11.8-31.6,26.2v0c0,14.5,14.1,26.2,31.6,26.2h60.1
					c-15.6,1.6-27.6,12.6-27.6,26v0c0,14.5,14.1,26.2,31.6,26.2h375.7c17.4,0,31.6-11.8,31.6-26.2v0c0-13.4-12-24.4-27.6-26h110.4
					c17.4,0,31.6-11.8,31.6-26.2v0c0-14.5-14.1-26.2-31.6-26.2H786.8c-14.9-2.1-26.2-12.9-26.2-25.8v0c0-14.5,14.1-26.2,31.6-26.2
					h170.2c17.4,0,31.6-11.8,31.6-26.2v0C993.8,528.5,979.7,516.7,962.3,516.7z"/>
				<g>
					<g>
						<g>
							<path fill="#A4A6B7" d="M614.1,260.5l12.7-21.2c0.7-1.2,2.2-1.5,3.3-0.8l0,0c1.1,0.7,1.5,2.2,0.8,3.3l0,0l-9.8,16.3l8.5-2.1
								c1.3-0.3,2.6,0.5,2.9,1.8l0,0c0.3,1.3-0.5,2.6-1.8,2.9l0,0l-14.1,3.5c-0.9,0.2-1.9-0.1-2.5-0.9l0,0
								C613.7,262.4,613.6,261.3,614.1,260.5L614.1,260.5C614.1,260.5,614.1,260.5,614.1,260.5L614.1,260.5z"/>
						</g>
						<g>
							<path fill="#A4A6B7" d="M633.4,231.9c-9.2,7.4-12.6,18.4-7.6,24.8c5,6.3,16.6,5.5,25.8-1.9c9.2-7.4,12.6-18.4,7.6-24.8
								C654.2,223.7,642.6,224.6,633.4,231.9z"/>
						</g>
						<g>
							<path fill="#868C90" d="M657.8,228.6c-5.7-3.3-14.9-2.1-22.7,3.7c-9.5,7-13.3,18-8.5,24.5c1.1,1.5,2.5,2.6,4.2,3.4
								c-2-0.7-3.7-1.8-5-3.4c-5-6.3-1.6-17.4,7.6-24.8C641.9,225.2,652.2,223.9,657.8,228.6z"/>
						</g>
						<g>
							<path fill="#C2C6CA" d="M635.5,234c-7.9,6.4-10.9,16-6.8,21.3c4.1,5.3,13.9,4.5,21.7-2c7.9-6.4,10.9-16,6.8-21.3
								C653.1,226.7,643.4,227.6,635.5,234z"/>
						</g>
						<g>
							<path fill="#868C90" d="M649.8,252.5c7.6-6.2,10.7-15.3,7.1-20.8c0.1,0.1,0.2,0.2,0.3,0.3c4.1,5.3,1.1,14.9-6.8,21.3
								c-7.9,6.4-17.6,7.3-21.7,2c-0.1-0.2-0.3-0.4-0.4-0.6C632.7,259.7,642.1,258.8,649.8,252.5z"/>
						</g>
						<g>
							<g>
								<path fill="#A4A6B7" d="M584.8,283.8c0.4,0.6,1.2,0.7,1.8,0.3l0,0l30.3-21.3c0.6-0.4,0.7-1.2,0.3-1.8l0,0
									c-0.4-0.6-1.2-0.7-1.8-0.3l0,0L585.1,282c-0.2,0.1-0.3,0.2-0.4,0.4l0,0C584.5,282.8,584.5,283.4,584.8,283.8L584.8,283.8z"
									/>
								<g>
									<path fill="#F7941E" d="M586.6,284.1l12.1-8.5c-0.2-0.6-0.7-1.4-1.7-2l-11.9,8.4c-0.2,0.1-0.3,0.2-0.4,0.4
										c-0.2,0.4-0.2,1,0.1,1.4C585.2,284.4,586,284.5,586.6,284.1z"/>
								</g>
							</g>
						</g>
					</g>
					<path fill="#C4B8B3" d="M564.9,386.7c0,0-8.2-2.6-9.2,1.3c-1,3.8,6.2,2.6,6.2,2.6L564.9,386.7z"/>
					<g>
						<path fill="#FFD779" d="M556.9,390l-12-93.8c-0.2-1.8,1-3.4,2.8-3.6l0,0c1.8-0.2,3.4,1,3.6,2.8l0,0l12,93.8
							c0.2,1.8-1,3.4-2.8,3.6l0,0c-0.1,0-0.3,0-0.4,0l0,0C558.5,392.8,557.1,391.7,556.9,390L556.9,390z"/>
					</g>
					<g>
						<path fill="#FFD779" d="M587.4,342.7l-2.3-5l-7.2-16.6l-16.4-31.2c-0.8-1.6-0.2-3.5,1.4-4.4l0,0c1.6-0.8,3.5-0.2,4.4,1.4l0,0
							l16.4,31.3l0.1,0.2L591,335l2.3,4.9c0.8,1.6,0,3.5-1.6,4.3l0,0c-0.4,0.2-0.9,0.3-1.4,0.3l0,0
							C589.2,344.5,588,343.8,587.4,342.7L587.4,342.7z"/>
					</g>
					<g>
						<path fill="#FFD779" d="M591.5,274.5l-14-12.4c-0.4-0.4-0.8-0.9-0.9-1.4l0,0l-3.1-9.7v0c-0.5-1.7,0.4-3.5,2.1-4.1l0,0
							c1.7-0.5,3.5,0.4,4.1,2.1l0,0l2.8,8.9l13.4,11.8c1.3,1.2,1.5,3.2,0.3,4.6l0,0c-0.6,0.7-1.5,1.1-2.4,1.1l0,0
							C592.9,275.3,592.1,275.1,591.5,274.5L591.5,274.5z"/>
					</g>
					<path fill="#F7941E" d="M570.9,221.8c0,0,4.9,0.8,5.9,3.5c1.1,2.7,6.2,22.1,6.2,22.1s-6.7,9.2-12.4,6.5
						C564.9,251.2,570.9,221.8,570.9,221.8z"/>
					<path fill="#F7941E" d="M556,298.9l13.2,19.1c0,0,8.9,1.4,15.9-11.9l-8.6-17.3L556,298.9z"/>
					<path fill="#E0761D" d="M528.5,242.7c0,0,12.9-17.4,33.6-20.6c20.6-3.2,13.3,9.3,13.3,15c0,5.7-5.7,41.3,1.2,50.6
						c6.9,9.3-31.5,26.7-42.5,13.8C523.3,288.4,521.3,254.8,528.5,242.7z"/>
					<path fill="#C55C18" d="M537.6,294.3c0,0,6.1,2.8,16.6,0.4c0,0-13.3,0.4-16-3.8c-2.6-4.2-3.4-19-2.4-20.6
						c1-1.6,3.8-18.8,3.8-18.8s3.4-9.5,9.5-10.3c0,0,3.4,4.2,8.5,2.2c5.1-2,0-6.9,0-6.9s-5.7-3.6-9.1-4.7c-2.5-0.7-3.3-2.5-3.5-3.4
						c-10.4,6.2-16.5,14.3-16.5,14.3c-7.3,12.1-5.3,45.7,5.7,58.6c3.6,4.3,10.3,5.2,17.4,4.2c3-1.5,5.7-3,5.7-3
						S540.9,300.8,537.6,294.3z"/>
					<path fill="#F7941E" d="M533.8,301.8l12.5,31.4c0,0,3.5,4.6,9.7,3.5c6.2-1.1,10.5-11.3,10.5-11.3l-1.6-23.5L533.8,301.8z"/>
					<path fill="#DE7B28" d="M546.3,333.2c0,0,3.5,4.6,9.7,3.5c-7.7-3.1-12.8-28.9-13.9-34.9l-8.3,0L546.3,333.2z"/>
					<g>
						<path fill="#FFD779" d="M593.2,284.7l-44.5-6.5c-0.9-0.1-1.7-0.6-2.2-1.3l0,0l-18.6-25.9v0c-1-1.5-0.7-3.5,0.7-4.5l0,0
							c1.5-1,3.5-0.7,4.5,0.7l0,0l17.8,24.8l43.1,6.3c1.8,0.3,3,1.9,2.7,3.7l0,0c-0.2,1.6-1.6,2.8-3.2,2.8l0,0
							C593.5,284.8,593.3,284.8,593.2,284.7L593.2,284.7z"/>
					</g>
					<path fill="#F7941E" d="M534.5,277.9c0,0,9.7-1.9,15.4-10.8c0,0-11.3-21.6-16.2-23.5c-4.9-1.9-11.6,3.2-7.5,14.6
						C530.2,269.5,534.5,277.9,534.5,277.9z"/>
					<path fill="#C4B8B3" d="M588.3,347.6c0,0,1.2,3.6,3,5.2c1.8,1.6,4.3,1.3,5.8-0.4c1.6-1.7,0.2-4.8-1.2-8.2
						C594.6,340.7,588.3,347.6,588.3,347.6z"/>
					<path fill="#BE1E2D" d="M587.7,340.3l-2-2.1l5.5-2.2l0.4,2.5c0,0,0.2,0.1,0.3-0.8c0.1-0.9-0.6-2.1-0.6-2.1s1.1-0.5,1.6,0.8
						c0.5,1.3,2.2,5.9,3.1,8c1,2.1,1.8,8.4-1.9,8.3c-3.7-0.2-5.2-3.2-6.4-6.2c-1.2-3-1.8-4.4-2.2-5.9c-0.4-1.5-0.2-2.3-0.2-2.3
						S586.4,340.7,587.7,340.3z"/>
					<path fill="#C4B8B3" d="M588.5,341.2c0,0,1,0,1.7-0.2c0.7-0.3,1.5-1,1.5-1s1.9,4.7,2.2,5.6c0.4,0.9,0.4,1.1,0.4,1.1
						s-2,1.2-2.8,1.2C590.6,347.8,588.5,341.2,588.5,341.2z"/>
					<path fill="#C4B8B3" d="M556.6,392.9l-1.4-1.2c0,0-0.2,2.1,1,3.5c1.1,1.5,4.4,5,10.2,4.7c5.7-0.3,6.7-3.2,6.7-3.2l-0.6-1.6
						L556.6,392.9z"/>
					<path fill="#BE1E2D" d="M558.8,389.3c2.2-0.5,1.9-0.1,1.4-2c-0.3-1.1-1.8-0.9-1-2.1c2.2-3.1,6-2.4,6.8,0.2c0.8,2.6,0.9,3,0.9,3
						s1,4,3.4,4.4c2.4,0.3,2.4,2.5,2.4,2.5s-2.8,4.5-8.3,3.2c-5.5-1.3-9.2-5.5-9.2-6.9c0-1.4,0.1-3.4,0.6-4.2
						C556.3,386.7,556.6,389.8,558.8,389.3z"/>
					<path fill="#C4B8B3" d="M562.4,389.2c0,0,2.3-0.7,2.9-0.7c0.6,0,1.1,3.6,3.8,4.6c0,0-2.2,1-2.5,1
						C566.3,394.1,561.9,392.3,562.4,389.2z"/>
					<path fill="#603913" d="M545.7,229.8c0,0-4-4.9-4.9-12.7c-0.8-7.8,2-6.6,2-6.6s-0.4-4.3,4.6-6.7c5-2.4,12.8-3.4,18.3,2.3
						c5.5,5.7,6.9,5.3,6.9,5.3s-0.5,5.8-4.2,9.3C564.8,224.1,551.6,231,545.7,229.8z"/>
					<path fill="#FFD779" d="M547.8,215.8c0,0,5.7,5.7,12.9,4.2c7.3-1.4,8.3-5.5,8.3-5.5s-1,23.3-6.7,26.9s-11.9-1.6-13.5-7.5
						c0,0-4.7,2-5.9-4.7c-1.2-6.7,3.6-3,3.6-3l1,2.6l1.6-1.4C549.2,227.5,546.5,224.7,547.8,215.8z"/>
					<path fill="#DE7B28" d="M539.9,275.9c-1.3-2.2-2.8-4.8-4.6-8.1c-7.2-13.4-7.3-20.5-6.5-23.7c-3.1,1.8-5.3,6.6-2.6,14.1
						c4,11.3,8.4,19.7,8.4,19.7S536.8,277.4,539.9,275.9z"/>
					<path fill="#A4A6B7" d="M682.3,236.9c0-1.1-0.9-2-2-2l-21.1,0.3c0.3,1.5,0.4,2.8,0.2,4l21-0.3
						C681.4,238.9,682.3,238,682.3,236.9z"/>
					<path fill="#F7941E" d="M609.7,323.9c0-1.5-1.2-2.8-2.7-2.8l-30.4-0.4c-1.5,0-2.7-1.3-2.7-2.8c0-1.5,1.3-2.7,2.8-2.7l17.5,0.2
						c1.5,0,2.8-1.2,2.8-2.7c0-1.5-1.2-2.8-2.7-2.8l-36.6-0.4c0,0.8-0.1,1.6-0.4,2.4c0.1,0.1,0.1,0.2,0.2,0.3
						c0.8,1.4,1.7,2.8,2.6,4.1c0.1,0.1,1.1,1.5,1.2,1.6c0.5,0.7,1,1.4,1.6,2.1c0.9,1.2,1.9,2.5,2.6,3.8c0.4,0.7,0.6,1.5,0.8,2.2
						l40.8,0.5C608.5,326.7,609.7,325.4,609.7,323.9z"/>
					<path fill="#E0761D" d="M624.2,267.1c0-1.5-1.2-2.8-2.7-2.8l-38.6-0.4c-1.5,0-2.7-1.3-2.7-2.8c0-1.5,1.3-2.7,2.8-2.7l25.7,0.1
						c1.5,0,2.8-1.2,2.8-2.7c0-1.5-1.2-2.8-2.7-2.8l-36.6-0.8c0,0.8-0.1,1.6-0.5,2.4c0.1,0.1,0.1,0.2,0.2,0.3
						c0.8,1.4-0.9,1.1,0.1,2.4c0.1,0.1-0.3,1.4-0.2,1.6c0.5,0.7-1.6,0.1-1.1,0.8c0.9,1.2-0.5,2.1,0.1,3.5c0.4,0.7-5.1,4.7-5,5.4
						l55.5,1C622.9,269.8,624.2,268.6,624.2,267.1z"/>
					<g>
						<path fill="#FFD779" d="M583.3,360.8c-0.1,1.1-1.2,1.9-2.5,1.8l-25.9-1.5c0.4-1.6,0.3-3.3,0-4.9c-0.1-0.6-0.3-1.3-0.4-2
							c-0.1-0.8-0.1-1.5-0.1-2.3l7.1,0.4l5,0.3l3.7,0.2c1.2,0.1,2.1,0.9,2,1.9c0,0.8-0.8,1.5-1.7,1.6c-0.1,0-0.3,0-0.4,0l-0.6,0
							c-0.5,0-1,0.3-1,0.7c0,0.4,0.4,0.8,0.9,0.8l0,0l11.6,0.7C582.4,358.8,583.4,359.7,583.3,360.8z"/>
					</g>
					<circle fill="#F7941E" cx="623.6" cy="320.8" r="2.4"/>
					<path fill="#603913" d="M557.6,207.1l23.6-1.1c1.1-0.1,2,0.8,2.1,1.9c0.1,1.1-0.8,2-1.9,2.1l-23.8,1.1V207.1z"/>
				</g>
				<g>
					<rect x="1072.5" y="357.9" fill="#98D09F" width="23.1" height="172.7"/>
					<rect x="301.1" y="357.9" fill="#98D09F" width="23.1" height="172.7"/>
					<rect x="324.2" y="366.7" fill="#98D09F" width="748.3" height="13.2"/>
					<rect x="324.2" y="513.6" fill="#98D09F" width="748.3" height="5"/>
					<g>
						<g>
							<g>
								<rect x="324.2" y="390.9" fill="#C9E19E" width="748.3" height="1.9"/>
								<rect x="324.2" y="404.5" fill="#C9E19E" width="748.3" height="1.9"/>
								<rect x="324.2" y="418.1" fill="#C9E19E" width="748.3" height="1.9"/>
								<rect x="324.2" y="431.8" fill="#C9E19E" width="748.3" height="1.9"/>
								<rect x="324.2" y="445.4" fill="#C9E19E" width="748.3" height="1.9"/>
								<rect x="324.2" y="459" fill="#C9E19E" width="748.3" height="1.9"/>
								<rect x="324.2" y="472.6" fill="#C9E19E" width="748.3" height="1.9"/>
								<rect x="324.2" y="486.3" fill="#C9E19E" width="748.3" height="1.9"/>
								<rect x="324.2" y="499.9" fill="#C9E19E" width="748.3" height="1.9"/>
							</g>
							<g>
								<rect x="444.8" y="379.9" fill="#C9E19E" width="1.9" height="133.7"/>
								<rect x="431.2" y="379.9" fill="#C9E19E" width="1.9" height="133.7"/>
								<rect x="417.6" y="379.9" fill="#C9E19E" width="1.9" height="133.7"/>
								<rect x="403.9" y="379.9" fill="#C9E19E" width="1.9" height="133.7"/>
								<rect x="390.3" y="379.9" fill="#C9E19E" width="1.9" height="133.7"/>
								<rect x="376.7" y="379.9" fill="#C9E19E" width="1.9" height="133.7"/>
								<rect x="363.1" y="379.9" fill="#C9E19E" width="1.9" height="133.7"/>
								<rect x="349.4" y="379.9" fill="#C9E19E" width="1.9" height="133.7"/>
								<rect x="335.8" y="379.9" fill="#C9E19E" width="1.9" height="133.7"/>
							</g>
							<g>
								<rect x="567.8" y="379.9" fill="#C9E19E" width="1.9" height="133.7"/>
								<rect x="554.2" y="379.9" fill="#C9E19E" width="1.9" height="133.7"/>
								<rect x="540.6" y="379.9" fill="#C9E19E" width="1.9" height="133.7"/>
								<rect x="527" y="379.9" fill="#C9E19E" width="1.9" height="133.7"/>
								<rect x="513.3" y="379.9" fill="#C9E19E" width="1.9" height="133.7"/>
								<rect x="499.7" y="379.9" fill="#C9E19E" width="1.9" height="133.7"/>
								<rect x="486.1" y="379.9" fill="#C9E19E" width="1.9" height="133.7"/>
								<rect x="472.4" y="379.9" fill="#C9E19E" width="1.9" height="133.7"/>
								<rect x="458.8" y="379.9" fill="#C9E19E" width="1.9" height="133.7"/>
							</g>
							<g>
								<rect x="690.9" y="379.9" fill="#C9E19E" width="1.9" height="133.7"/>
								<rect x="677.2" y="379.9" fill="#C9E19E" width="1.9" height="133.7"/>
								<rect x="663.6" y="379.9" fill="#C9E19E" width="1.9" height="133.7"/>
								<rect x="650" y="379.9" fill="#C9E19E" width="1.9" height="133.7"/>
								<rect x="636.3" y="379.9" fill="#C9E19E" width="1.9" height="133.7"/>
								<rect x="622.7" y="379.9" fill="#C9E19E" width="1.9" height="133.7"/>
								<rect x="609.1" y="379.9" fill="#C9E19E" width="1.9" height="133.7"/>
								<rect x="595.5" y="379.9" fill="#C9E19E" width="1.9" height="133.7"/>
								<rect x="581.8" y="379.9" fill="#C9E19E" width="1.9" height="133.7"/>
							</g>
							<g>
								<rect x="813.9" y="379.9" fill="#C9E19E" width="1.9" height="133.7"/>
								<rect x="800.2" y="379.9" fill="#C9E19E" width="1.9" height="133.7"/>
								<rect x="786.6" y="379.9" fill="#C9E19E" width="1.9" height="133.7"/>
								<rect x="773" y="379.9" fill="#C9E19E" width="1.9" height="133.7"/>
								<rect x="759.4" y="379.9" fill="#C9E19E" width="1.9" height="133.7"/>
								<rect x="745.7" y="379.9" fill="#C9E19E" width="1.9" height="133.7"/>
								<rect x="732.1" y="379.9" fill="#C9E19E" width="1.9" height="133.7"/>
								<rect x="718.5" y="379.9" fill="#C9E19E" width="1.9" height="133.7"/>
								<rect x="704.8" y="379.9" fill="#C9E19E" width="1.9" height="133.7"/>
							</g>
							<g>
								<rect x="936.9" y="379.9" fill="#C9E19E" width="1.9" height="133.7"/>
								<rect x="923.3" y="379.9" fill="#C9E19E" width="1.9" height="133.7"/>
								<rect x="909.6" y="379.9" fill="#C9E19E" width="1.9" height="133.7"/>
								<rect x="896" y="379.9" fill="#C9E19E" width="1.9" height="133.7"/>
								<rect x="882.4" y="379.9" fill="#C9E19E" width="1.9" height="133.7"/>
								<rect x="868.7" y="379.9" fill="#C9E19E" width="1.9" height="133.7"/>
								<rect x="855.1" y="379.9" fill="#C9E19E" width="1.9" height="133.7"/>
								<rect x="841.5" y="379.9" fill="#C9E19E" width="1.9" height="133.7"/>
								<rect x="827.9" y="379.9" fill="#C9E19E" width="1.9" height="133.7"/>
							</g>
							<g>
								<rect x="1059.9" y="379.9" fill="#C9E19E" width="1.9" height="133.7"/>
								<rect x="1046.3" y="379.9" fill="#C9E19E" width="1.9" height="133.7"/>
								<rect x="1032.6" y="379.9" fill="#C9E19E" width="1.9" height="133.7"/>
								<rect x="1019" y="379.9" fill="#C9E19E" width="1.9" height="133.7"/>
								<rect x="1005.4" y="379.9" fill="#C9E19E" width="1.9" height="133.7"/>
								<rect x="991.8" y="379.9" fill="#C9E19E" width="1.9" height="133.7"/>
								<rect x="978.1" y="379.9" fill="#C9E19E" width="1.9" height="133.7"/>
								<rect x="964.5" y="379.9" fill="#C9E19E" width="1.9" height="133.7"/>
								<rect x="950.9" y="379.9" fill="#C9E19E" width="1.9" height="133.7"/>
							</g>
						</g>
					</g>
					<g>
						<g>
							<g>
								<rect x="324.2" y="366.7" fill="#79A982" width="3.8" height="13.2"/>
							</g>
							<g>
								<rect x="324.2" y="513.6" fill="#79A982" width="3.8" height="5"/>
							</g>
						</g>
					</g>
					<g>
						<g>
							<g>
								<rect x="1068.6" y="366.7" fill="#79A982" width="3.8" height="13.2"/>
							</g>
							<g>
								<rect x="1068.6" y="513.6" fill="#79A982" width="3.8" height="5"/>
							</g>
						</g>
					</g>
				</g>
				<path fill="#38AE5A" d="M1010.3,301.5L1010.3,301.5l-0.7,0h-9.1h-43.9c0.1,0,0.2,0,0.3,0c-4.7-0.1-8.4-3.3-8.4-7.2
					c0-3.9,3.7-7.1,8.4-7.2c-0.1,0-0.2,0-0.3,0h21.5c6.9,0,12.5-4.7,12.5-10.4c0-5.8-5.6-10.4-12.5-10.4h-71.5h-91.2
					c-6.9,0-12.5,4.7-12.5,10.4c0,5.8,5.6,10.4,12.5,10.4h21.5c-0.1,0-0.2,0-0.3,0c4.7,0.1,8.4,3.3,8.4,7.2c0,3.9-3.7,7.1-8.4,7.2
					c0.1,0,0.2,0,0.3,0h2.4v0c-5.5,0.3-9.8,4.1-9.8,8.8v0c0,4.7,4.3,8.5,9.8,8.8v0h0.7h9.1h44.8h115.7h0.7v0
					c5.5-0.3,9.8-4.1,9.8-8.8v0C1020.2,305.6,1015.8,301.8,1010.3,301.5z"/>
				<g>
					<g>
						<path fill="#38AE5A" d="M118.7,570.3c1.3,0.3,2.6,0.4,4,0.4h136.6c8.2,0,14.9-5.6,14.9-12.4v0c0-6.9-6.7-12.4-14.9-12.4H208
							c-1.7-0.5-2.9-1.9-2.9-3.5c0-2.1,2-3.8,4.5-3.8h-1.1c7.9,0,14.3-5.3,14.3-11.9v0c0-6.6-6.4-11.9-14.3-11.9h-66.8
							c-7.9,0-14.3,5.3-14.3,11.9v0c0,6.6,6.4,11.9,14.3,11.9H130h-6.8c-10.7,0-19.3,7.2-19.3,16.1
							C103.9,562.3,110.2,568.6,118.7,570.3z"/>
						<path fill="#38AE5A" d="M209.7,538.6L209.7,538.6C209.6,538.6,209.7,538.6,209.7,538.6L209.7,538.6z"/>
					</g>
				</g>
				<g>
					<g>
						<path fill="#52BA66" d="M1217,598.3h34.1c6.1,0,11.1-4.1,11.1-9.2v0c0-5.1-5-9.2-11.1-9.2H1217c-6.1,0-11.1,4.1-11.1,9.2v0
							C1205.9,594.2,1210.9,598.3,1217,598.3z"/>
						<path fill="#52BA66" d="M1164,598.3h11.5c6.1,0,11.1-4.1,11.1-9.2v0c0-5.1-5-9.2-11.1-9.2H1164c-6.1,0-11.1,4.1-11.1,9.2v0
							C1152.9,594.2,1157.9,598.3,1164,598.3z"/>
					</g>
				</g>
				<path fill="#52BA66" d="M611.1,816.5h-99.9c-10.6,0-19.2,7.1-19.2,15.9v0c0,8.8,8.6,15.9,19.2,15.9h99.9
					c10.6,0,19.2-7.1,19.2-15.9v0C630.2,823.7,621.7,816.5,611.1,816.5z"/>
				<polygon fill="#38AE5A" points="354.2,624.8 361.9,607.4 369.9,618.8 379.3,592.8 385.9,618.3 395.6,605.7 401.1,624.8 				"/>
				<polygon fill="#52BA66" points="320,297.2 307.3,268.8 294,290 284.4,279.5 278.9,297.2 				"/>
				<polygon fill="#9DDCF9" points="771,777.7 780.5,756.3 790.3,770.4 799.8,758.1 810,769.7 821.9,754.2 828.6,777.7 				"/>
				<path fill="#2A914A" d="M896.9,649H884H709.6H571.1c-12.6,0-22.7,8.5-22.7,18.9v0c0,10.4,10.2,18.9,22.7,18.9h43.3
					c-11.2,1.2-19.9,9.1-19.9,18.7v0c0,10.4,10.2,18.9,22.7,18.9h208.6c12.6,0,22.7-8.5,22.7-18.9v0c0-9.6-8.7-17.6-19.9-18.7h68.2
					c12.6,0,22.7-8.5,22.7-18.9v0C919.6,657.5,909.4,649,896.9,649z"/>
				<g>
					<g>
						<path fill="#FFD779" d="M823,516l-40.9-21.2c-1.6-0.8-2.8-2.2-3.6-3.8l0,0l-16.8-38.5c-1.7-4,0.1-8.6,4-10.3l0,0
							c3.9-1.7,8.6,0.1,10.3,4l0,0l15.7,36l38.5,19.9c3.8,2,5.3,6.7,3.3,10.5l0,0c-1.4,2.7-4.1,4.2-6.9,4.2l0,0
							C825.4,516.9,824.2,516.6,823,516L823,516z"/>
					</g>
					<circle fill="#FFD779" cx="786.9" cy="398.2" r="22.4"/>
					<path fill="#754C29" d="M796.2,414.2l5.9-8.8c0,0-5.2,1.3-4.6-4.9c0.7-6.2,6.5-6.5,6.8-2.3c0,0,6.2-3.9,3.6-13.7
						c-2.6-9.8,3.3-13.7-13.3-19.2c-16.6-5.5-30,7.2-33.2,14l4.2-0.7c0,0-3.3,2-3.9,4.9c-0.7,2.9-0.7,5.2-0.7,5.2l2.3-3.9
						c0,0-2.9,8.5,0,16.6c2.9,8.1,4.9,10.7,4.9,10.7L796.2,414.2z"/>
					<path fill="#1C75BC" d="M792.1,416.9l-3.2-10.3c0,0-10-5.9-18.6-4.2c-8.5,1.7-9,3.2-9,3.2v4.9L792.1,416.9z"/>
					<g>
						<path fill="#FFD779" d="M772,664.1l-45.2-104.4c-1.7-4,0.1-8.6,4.1-10.3l0,0c4-1.7,8.6,0.1,10.3,4.1l0,0l45.2,104.4
							c1.7,4-0.1,8.6-4.1,10.3l0,0c-1,0.4-2.1,0.6-3.1,0.6l0,0C776.2,668.9,773.3,667.1,772,664.1L772,664.1z"/>
					</g>
					<g>
						<path fill="#FFD779" d="M654.3,610.7l-67.1-23.4c-4.1-1.4-6.2-5.9-4.8-10l0,0c1.4-4.1,5.9-6.2,10-4.8l0,0l59.8,20.9l15.6-43.5
							h0c1.5-4.1,5.9-6.2,10-4.7l0,0c4.1,1.5,6.2,5.9,4.7,10l0,0L664.2,606c-1.1,3.2-4.1,5.2-7.4,5.2l0,0
							C656,611.2,655.1,611,654.3,610.7L654.3,610.7z"/>
					</g>
					<path fill="#A97C50" d="M713.9,537l-28.6,39.1c0,0-24.7,2.7-28.8-14.2c-4.2-16.8,12.7-62.5,19-65.7
						C681.9,493.1,713.9,537,713.9,537z"/>
					<path fill="#8B5E3C" d="M712.5,536.8c-2.8-4-31.9-13.2-34-13.9c1.5,1.3,10.4,28.5,10.4,28.5l-10.5,21.5c0,0-7.7-0.2-13.4-0.3
						c8.7,4.8,20.5,3.5,20.5,3.5l27.7-37.9C712.9,537.6,712.7,537.1,712.5,536.8z"/>
					<path fill="#A97C50" d="M677.1,494.5c0,0-4.4,3.4-5.9,15.1c-1.5,11.7,46.4,70.8,46.4,70.8s20.5,7.1,38.6-9l-10.7-55.9
						L677.1,494.5z"/>
					<path fill="#8B5E3C" d="M745.4,515.5l-39-12c-14.5,0.8-27.9,1.7-27.9,1.7s7.1,15.6,42.2,24.4l22.5,42.7c0,0-3.3,5.7-18,9.5
						c7.6,0.6,19.7-0.5,30.9-10.4L745.4,515.5z"/>
					<path fill="#87C2EA" d="M678.4,488.4c0,0,67.9-74.1,83.8-79.4c15.9-5.3,49.1,8.7,55.4,13.5c6.3,4.8-62.6,92.9-72.7,98.7
						c-10.1,5.8-25,3.9-43.3-2.4C683.2,512.5,666.3,502.4,678.4,488.4z"/>
					<g>
						<path fill="#FCBB72" d="M933.3,431.4c-1.5-1.6-1.4-4.1,0.2-5.5l0,0l6.6-6.1c1.6-1.5,4.1-1.4,5.5,0.2l0,0
							c1.5,1.6,1.4,4.1-0.2,5.5l0,0l-6.6,6.1c-0.8,0.7-1.7,1-2.7,1l0,0C935.1,432.6,934.1,432.2,933.3,431.4L933.3,431.4z"/>
					</g>
					<g>
						<g>
							<path fill="#A4A6B7" d="M990.5,410.6l46.3-0.3c2.5,0,4.5-2.1,4.5-4.5l0,0c0-2.5-2-4.5-4.6-4.5l0,0l-35.4,0.2l11.4-11.6
								c1.8-1.8,1.7-4.6-0.1-6.4l0,0c-1.8-1.8-4.6-1.7-6.4,0l0,0l-19,19.4c-1.3,1.3-1.7,3.2-0.9,4.9l0,0
								C987,409.5,988.7,410.6,990.5,410.6L990.5,410.6C990.5,410.6,990.5,410.6,990.5,410.6L990.5,410.6z"/>
						</g>
						<g>
							<path fill="#A4A6B7" d="M1054.8,406.8c-20.6,7.8-41.7,2.7-47.1-11.4c-5.4-14.1,7-31.9,27.6-39.8c20.6-7.8,41.7-2.8,47,11.4
								C1087.7,381.2,1075.4,399,1054.8,406.8z"/>
						</g>
						<g>
							<path fill="#868C90" d="M1083.3,370.7c-0.1,12.3-10.9,25.9-27.6,33c-20.3,8.6-41.5,4.3-47.5-9.6c-1.3-3.2-1.7-6.6-1.4-10
								c-0.8,3.9-0.6,7.7,0.8,11.3c5.4,14.1,26.4,19.2,47.1,11.4C1073.6,399.7,1085.5,384.1,1083.3,370.7z"/>
						</g>
						<g>
							<path fill="#C2C6CA" d="M1053.5,401.4c-17.9,6.5-36.1,2.3-40.8-9.4c-4.7-11.7,6-26.5,23.9-33c17.8-6.5,36.1-2.3,40.7,9.4
								C1082,380.1,1071.3,394.9,1053.5,401.4z"/>
						</g>
						<g>
							<path fill="#868C90" d="M1037.4,360.9c17.2-6.3,34.8-2.5,40.2,8.3c-0.1-0.3-0.1-0.5-0.2-0.8c-4.7-11.7-22.9-16-40.7-9.4
								c-17.9,6.5-28.5,21.3-23.9,33c0.2,0.4,0.4,0.8,0.6,1.2C1009.4,381.5,1019.9,367.2,1037.4,360.9z"/>
						</g>
						<g>
							<g>
								<path fill="#A4A6B7" d="M925.2,435.6c-0.5-1.2,0-2.6,1.2-3.2l0,0l63.1-28.5c1.2-0.5,2.6,0,3.2,1.2l0,0
									c0.5,1.2,0,2.6-1.2,3.2l0,0l-63.1,28.5c-0.3,0.1-0.7,0.2-1,0.2l0,0C926.4,437,925.6,436.5,925.2,435.6L925.2,435.6z"/>
								<g>
									<path fill="#F7941E" d="M926.4,432.4l25.2-11.4c0.7,0.9,1.6,2.4,1.6,4.6l-24.8,11.2c-0.3,0.1-0.7,0.2-1,0.2
										c-0.9,0-1.8-0.5-2.2-1.4C924.6,434.4,925.1,432.9,926.4,432.4z"/>
								</g>
							</g>
						</g>
					</g>
					<g>
						<path fill="#FFD779" d="M869.7,451.4l-35.6-5.8v0c-4.3-0.7-7.2-4.7-6.5-9l0,0c0.7-4.3,4.7-7.2,9-6.5l0,0l34.3,5.6l74.7-13.7
							c4.2-0.8,8.3,2,9.1,6.3l0,0c0.8,4.2-2,8.3-6.3,9.1l0,0l-76.1,14c-0.5,0.1-0.9,0.1-1.4,0.1l0,0
							C870.5,451.5,870.1,451.4,869.7,451.4L869.7,451.4z"/>
					</g>
					<path fill="#87C2EA" d="M795.3,415.2l54.4,9.1c0,0,5.8,35.6-13.5,41.9l-43.8-14.9L795.3,415.2z"/>
					<path fill="#68A5CC" d="M801.3,439.8c0,0-4.9-1.2-4.9-10.3c0-9,4.9-10.5,4.9-10.5s-7.6-1.5-10.3,9c-2.7,10.5-0.2,15.6-0.2,15.6
						l-65.7,77.9l-5,2.1c9.9,1.7,18.3,1.1,24.7-2.6c6.3-3.6,35.8-39.6,55.3-67.2l36.1,12.3c7.6-2.5,11.3-9.4,13-17L801.3,439.8z"/>
					<path fill="#68A5CC" d="M738.3,511.4c0,0-7.6,3.7-28.1,0.5c-20.5-3.2-28.8-17.6-28.8-17.6s3.7,13.4,18.6,18.3
						c14.9,4.9,31.3,6.1,31.3,6.1L738.3,511.4z"/>
					<path fill="#D4D3CE" d="M609.3,578.5l-16.9-5.9c-4.1-1.4-8.5,0.7-10,4.8c-1.4,4.1,0.7,8.5,4.8,10l18.7,6.5
						C608.6,589.3,609.3,583,609.3,578.5z"/>
					<path fill="#D4D3CE" d="M786.4,657.9l-5.9-13.6c-7.6,0.3-12.2,3.9-14.4,6.1l5.9,13.7c1.3,2.9,4.2,4.7,7.2,4.7
						c1,0,2.1-0.2,3.1-0.6C786.3,666.5,788.1,661.9,786.4,657.9z"/>
					<path fill="#BE1E2D" d="M585.6,614l-0.3,2.5l4.4,0.8l4.2-4.2c0,0-1.9-10.6,2.5-14.2c4.4-3.6,7.2,2.2,10.3,0.8
						c3.1-1.4,5.3-8.1,0.6-9.2c-4.7-1.1-3.6-0.8-3.6-0.8s1.4-6.4-1.4-14.2c-2.8-7.8-19.7-16.1-23.1-14.7
						C575.8,562.4,585.6,614,585.6,614z"/>
					<path fill="#D4D3CE" d="M579.2,561c-3.3,1.4,6.4,53.1,6.4,53.1l-0.3,2.5l4.4,0.8l3.7-3.7c-0.6-2.3-0.9-6.3-0.4-13
						c1.4-16.1-5.8-28.3-5.8-28.3c1.6-3.8,0.9-7.1-0.2-9.4C583.5,561.3,580.4,560.5,579.2,561z"/>
					<path fill="#A97C50" d="M591.1,612.6c0,0-4.7,3.9-5.8,3.9c-1.1,0-8.6-3.1-11.9-17.2c-3.3-14.2,1.1-23.3,1.1-23.3l-1.7-1.1
						c0,0-2.2-9.7,5.3-13.3c7.5-3.6,5.6,11.4,5.6,11.4l1.1,1.7c0,0,4.2,13.1,4.7,24.2C590,609.9,591.1,612.6,591.1,612.6z"/>
					<path fill="#D4D3CE" d="M777.2,684.3l-1.2,2.2c0,0,1.5,3.4,4.6,4.2c3.2,0.7,11.5-2.9,16.6-5.9c5.1-2.9,7.6-5.6,16.1-8.3
						c8.5-2.7,13.7-9.5,15.1-16.1l-2-2l-11.5,7.1c0,0-12.9,9-14.9,9.3C798.2,675,777.2,684.3,777.2,684.3z"/>
					<path fill="#BE1E2D" d="M769.6,664.5l2.4-1.2c0,0,1.7-0.5,7.8-1.5c6.1-1,6.8-7.3,6.8-7.3s-2.7-1.5-4.6-3.4
						c-2-2-0.2-5.1,4.2-5.1c4.4,0,6.3,9.8,6.3,9.8s11.2,7.6,20,5.1c8.8-2.4,9-5.1,9-5.1l4.9,2.7c0,0-4.2,10-12.9,13.7
						c-8.8,3.7-14.4,3.2-18.3,6.6c-3.9,3.4-3.9,3.4-3.9,3.4s-9.8,4.9-13.9,4.6c-4.2-0.2-8.8-11.2-9-14.9
						C768.1,668.2,766.7,666,769.6,664.5z"/>
					<path fill="#754C29" d="M780.1,383.4l-68.5-3.2c-1.8-0.1-3.4,1.3-3.5,3.2c-0.1,1.8,1.3,3.4,3.2,3.5l68.5,3.2
						c1.8,0.1,3.4-1.3,3.5-3.2C783.4,385,782,383.5,780.1,383.4z"/>
					<path fill="#A4A6B7" d="M1000.9,391.4l-43.6-0.7c-1.8,0-3.4,1.4-3.4,3.3c0,1.8,1.4,3.4,3.3,3.4l43.6,0.7c1.8,0,3.4-1.4,3.4-3.3
						C1004.2,393,1002.8,391.5,1000.9,391.4z"/>
					<path fill="#BE1E2D" d="M552.6,576.4c0-1.8,1.5-3.3,3.4-3.3l35.3,0.6c-0.6,2.4-0.7,4.6-0.4,6.7l-35-0.5
						C554,579.8,552.6,578.3,552.6,576.4z"/>
					<path fill="#FFD779" d="M890.3,427.4c0-1.8,1.5-3.3,3.4-3.3l35.3,0.6c-0.6,2.4-0.7,4.6-0.4,6.7l-35-0.5
						C891.7,430.7,890.3,429.2,890.3,427.4z"/>
					<path fill="#A97C50" d="M587.9,541c0.2-2.5,2.4-4.4,4.9-4.2l50.5,4.3c2.5,0.2,4.7-1.6,4.9-4.2c0.2-2.5-1.6-4.7-4.2-4.9l-29-2.5
						c-2.5-0.2-4.4-2.4-4.2-4.9c0.2-2.5,2.4-4.4,4.9-4.2l60.8,5.2c-0.2,1.3-0.1,2.7,0.3,4.1c-0.1,0.2-0.2,0.3-0.3,0.5
						c-1.6,2.2-3.2,4.3-5,6.4c-0.2,0.2-2,2.2-2.3,2.5c-1,1.1-2,2.1-2.9,3.2c-1.7,1.9-3.6,3.8-5,5.9c-0.8,1.2-1.3,2.3-1.6,3.5
						l-67.8-5.8C589.6,545.8,587.7,543.6,587.9,541z"/>
					<path fill="#87C2EA" d="M622.6,482.8c-0.1-2.5,1.9-4.6,4.5-4.7l64.5-0.7c2.5-0.1,4.5-2.1,4.5-4.7c-0.1-2.5-2.1-4.5-4.7-4.5
						l-43,0.2c-2.5,0.1-4.6-1.9-4.7-4.5c-0.1-2.5,1.9-4.6,4.5-4.7l61-1.3c0,1.3,0.2,2.7,0.8,4.1c-0.1,0.2-0.2,0.4-0.3,0.5
						c-1.3,2.4,1.4,1.9-0.1,4.1c-0.2,0.2,0.5,2.4,0.3,2.6c-0.9,1.2,2.6,0.2,1.8,1.3c-1.5,2.1,0.9,3.5-0.2,5.8
						c-0.6,1.2,8.6,7.8,8.4,9l-92.5,1.7C624.7,487.3,622.6,485.3,622.6,482.8z"/>
					<g>
						<path fill="#FFD779" d="M713.5,622.9c-0.1,1.8,1.5,3.4,3.7,3.6l43.2,3.4c-0.3-2.7,0.3-5.5,1.1-8.1c0.3-1,0.7-2.1,1.1-3.1
							c0.3-1.2,0.5-2.5,0.7-3.7l-11.9-0.9l-8.3-0.7l-6.1-0.5c-2-0.2-3.7,1-3.8,2.7c-0.1,1.4,1,2.7,2.5,3.1c0.2,0.1,0.5,0.1,0.7,0.1
							l0.9,0.1c0.9,0.1,1.5,0.7,1.5,1.4s-0.8,1.2-1.7,1.2l0,0l-19.3-1.5C715.5,619.8,713.6,621.1,713.5,622.9z"/>
					</g>
					<circle fill="#87C2EA" cx="628.7" cy="465" r="4.1"/>
				</g>
				<circle fill="#52BA66" cx="672.8" cy="832" r="15.5"/>
				<g>
					<path fill="#BED73B" d="M1099.6,809.7c-35.1,44.5-99.6,52.1-144.1,17.1c-44.5-35.1-52.2-99.6-17.1-144.1
						c35.1-44.5,99.6-52.1,144.1-17.1C1127,700.7,1134.7,765.2,1099.6,809.7z"/>
					<path fill="#9CB230" d="M1118.2,720.2c-0.5,21.6-7.6,43.1-21.9,61.3c-35.1,44.6-99.6,52.2-144.1,17.1
						c-18.2-14.3-30.2-33.7-35.6-54.5c-0.6,31,12.7,62,39,82.7c44.5,35.1,109,27.5,144.1-17.1C1120.3,783.5,1126,750.2,1118.2,720.2
						z"/>
					<path fill="#FFFFFF" d="M1052.8,772.8c17.4-22.1,42.3-34.7,68.2-37.3c-0.3-2.2-0.6-4.4-1-6.6c-27.5,2.8-54,16.3-72.5,39.7
						c-18.5,23.4-25.4,52.3-21.7,79.7c2.2-0.1,4.4-0.3,6.7-0.6C1029,822,1035.4,794.9,1052.8,772.8z M1005.4,644.6
						c3.6,25.8-2.8,52.9-20.2,75c-17.4,22.1-42.3,34.7-68.2,37.2c0.2,2.3,0.6,4.5,1,6.7c27.6-2.8,53.9-16.3,72.5-39.7
						c18.4-23.5,25.4-52.3,21.7-79.8C1009.9,644.1,1007.7,644.2,1005.4,644.6z"/>
					<g>
						<g>
							<path fill="#BED73B" d="M1086.9,552.9c5.7,0,10.3,5.5,10.4,12.3l0.9,135.6c-8.4-1.5-17.1-0.4-25.6,1.6
								c-3.3,0.8-6.7,1.8-10,2.6c-3.9,0.5-7.8,1-11.8,1.3l-0.3-37.3l-0.2-26.2l-0.1-19.3c0-6.2,4.1-11.2,9.2-11.3
								c4.4,0,8.1,3.6,9.1,8.5c0.2,0.7,0.3,1.5,0.3,2.3l0,3c0,2.7,1.9,4.9,4.1,4.9c2.3,0,4.1-2.2,4.1-5l0,0l-0.4-60.6
								C1076.6,558.5,1081.2,552.9,1086.9,552.9z"/>
						</g>
						<circle fill="#BED73B" cx="1057.4" cy="590.7" r="8.5"/>
					</g>
					<g>
						<path fill="#FFFFFF" d="M943.6,754.5l-0.8-94.2c0-2.5-2.1-4.4-4.5-4.4c-2.5,0-4.4,2.1-4.4,4.5l0.8,93.8
							C937.4,753.8,940.4,753.8,943.6,754.5z"/>
						<circle fill="#FFFFFF" cx="938.8" cy="640.2" r="4.9"/>
					</g>
					<path fill="#9CB230" d="M1012.5,830.1c-0.2-33.8,0.2-83.4,0.4-104.4c0-3.4-2.7-6.1-6.1-6.1c-3.4,0-6.1,2.7-6.1,6.1l-1.3,57.3
						c0,3.4-2.8,6.1-6.1,6.1c-3.4,0-6.1-2.8-6.1-6.1l1.5-86c0-3.4-2.7-6.1-6.1-6.1c-3.4,0-6.1,2.7-6.1,6.1l-2.8,123.3L1012.5,830.1z
						"/>
				</g>
			</g>
			<g>
				<path fill="#EEF4D4" d="M872.1,583c-11.9,1.8-13.4,3.2-15.1,15.1c-1.8-11.9-3.2-13.4-15.1-15.1c11.9-1.8,13.4-3.2,15.1-15.1
					C858.8,579.8,860.2,581.2,872.1,583z"/>
				<path fill="#EEF4D4" d="M955.5,385.9c-9.1,1.4-10.2,2.5-11.6,11.6c-1.4-9.1-2.5-10.2-11.6-11.6c9.1-1.4,10.2-2.5,11.6-11.6
					C945.2,383.4,946.3,384.5,955.5,385.9z"/>
				<path fill="#EEF4D4" d="M1005.4,486.3c-9.1,1.4-10.2,2.5-11.6,11.6c-1.4-9.1-2.5-10.2-11.6-11.6c9.1-1.4,10.2-2.5,11.6-11.6
					C995.2,483.8,996.3,484.9,1005.4,486.3z"/>
				<path fill="#EEF4D4" d="M737.7,221.8c-9.1,1.4-10.2,2.5-11.6,11.6c-1.4-9.1-2.5-10.2-11.6-11.6c9.1-1.4,10.2-2.5,11.6-11.6
					C727.5,219.4,728.6,220.5,737.7,221.8z"/>
				<path fill="#EEF4D4" d="M683.7,188.9c-7.4,1.1-8.2,2-9.3,9.3c-1.1-7.4-2-8.2-9.3-9.3c7.4-1.1,8.2-2,9.3-9.3
					C675.4,186.9,676.3,187.8,683.7,188.9z"/>
				<path fill="#EEF4D4" d="M470,221.8c-7.4,1.1-8.2,2-9.3,9.3c-1.1-7.4-2-8.2-9.3-9.3c7.4-1.1,8.2-2,9.3-9.3
					C461.8,219.8,462.7,220.7,470,221.8z"/>
				<path fill="#EEF4D4" d="M651.9,301.8c-7.4,1.1-8.2,2-9.3,9.3c-1.1-7.4-2-8.2-9.3-9.3c7.4-1.1,8.2-2,9.3-9.3
					C643.6,299.8,644.5,300.7,651.9,301.8z"/>
			</g>
		</g>
		<g>
			<path fill="#FFFFFF" d="M1183.4,295c-0.7,0-1.4,0.1-2.1,0.2c-1.2-7.1-7.3-12.5-14.7-12.5c-1.1,0-2.2,0.1-3.3,0.4
				c-1.1-8-8-14.3-16.3-14.3c-5.5,0-10.4,2.7-13.4,6.9c-1.4-0.8-3.1-1.3-4.9-1.3c-2.2,0-4.2,0.7-5.8,2c-1.6-4-5.4-6.8-10-6.8
				c-2,0-3.9,0.6-5.5,1.5c-2.6-5.7-8.4-9.7-15.1-9.7c-9.2,0-16.6,7.4-16.6,16.6c0,1.6,0.2,3.2,0.7,4.7c-1.2,0.1-2.3,0.4-3.4,0.8
				c-2.2-1.2-4.8-1.8-7.5-1.8c-0.1,0-0.1,0-0.2,0c-0.3-12.4-10.4-22.4-22.9-22.4c-4,0-7.8,1-11.1,2.9c-0.4-5.5-4.9-9.8-10.5-9.8
				c-0.8,0-1.6,0.1-2.3,0.3c-2.8-9.1-11.3-15.7-21.4-15.7c-10.7,0-19.7,7.5-21.9,17.6c-2.6-1.4-5.6-2.2-8.7-2.2
				c-10.2,0-18.5,8.3-18.5,18.5c0,1.3,0.1,2.5,0.4,3.7c-0.6-0.1-1.1-0.1-1.7-0.1c-6.4,0-11.6,5.2-11.6,11.6c0,0.4,0,0.8,0.1,1.2
				c-8.2,0.6-14.7,7-15.5,15.1H1062h19.4h111.3C1191.8,298.2,1188,295,1183.4,295z"/>
			<path fill="#FFFFFF" d="M950.7,179.7c-0.9-1.7-2.3-3.2-4-4.2c0.3-1.2,0.5-2.4,0.5-3.7c0-7.9-6-14.3-13.7-15.1
				c0.5-1.8,0.8-3.7,0.8-5.6c0-11-8.9-19.9-19.9-19.9c-8,0-14.9,4.7-18,11.6c-1.9-1.1-4.2-1.8-6.5-1.8c-5.4,0-10,3.4-11.9,8.1
				c-1.9-1.5-4.3-2.4-6.9-2.4c-2.1,0-4.1,0.6-5.8,1.6c-3.6-5-9.4-8.3-16.1-8.3c-10,0-18.2,7.4-19.5,17c-1.3-0.3-2.6-0.4-3.9-0.4
				c-8.8,0-16.2,6.5-17.6,14.9c-0.8-0.2-1.6-0.3-2.5-0.3c-5.2,0-9.6,3.6-10.9,8.4H950.7z"/>
		</g>
		<path fill="#FFFFFF" d="M325.6,328.1c-1.3,0-2.5,0.2-3.7,0.4c-1.2-9.1-9-16.1-18.4-16.1c-6.2,0-11.8,3.1-15.1,7.8
			c-1.6-1-3.5-1.5-5.5-1.5c-2.5,0-4.7,0.8-6.5,2.2c-1.8-4.5-6.1-7.6-11.2-7.6c-2.3,0-4.4,0.6-6.2,1.7c-3-6.4-9.5-10.9-17-10.9
			c-8.6,0-15.8,5.8-18,13.6c-3.3-3.3-7.9-5.3-13-5.3c-6.2,0-11.8,3.1-15.1,7.8c-1.6-1-3.5-1.5-5.5-1.5c-2.5,0-4.7,0.8-6.5,2.2
			c-1.8-4.5-6.1-7.6-11.2-7.6c-2.3,0-4.4,0.6-6.2,1.7c-3-6.4-9.5-10.9-17-10.9c-10.3,0-18.7,8.4-18.7,18.7c0,1.8,0.3,3.6,0.8,5.3
			c-6.9,0.7-12.3,6.3-12.8,13.2h92.5h38.3h92.5C340.3,333.8,333.6,328.1,325.6,328.1z"/>
	</g>
</g>
</svg>
